<?xml version="1.0" encoding="UTF-8"?>
<!-- Generator: Adobe Illustrator 18.0.0, SVG Export Plug-In . SVG Version: 6.00 Build 0)  -->
<!DOCTYPE svg PUBLIC "-//W3C//DTD SVG 1.1//EN" "http://www.w3.org/Graphics/SVG/1.1/DTD/svg11.dtd">
<svg version="1.1" id="Layer_1" xmlns="http://www.w3.org/2000/svg" xmlns:xlink="http://www.w3.org/1999/xlink" x="0px" y="0px" viewBox="1236.6 20 26 20" enable-background="new 1236.6 20 26 20" xml:space="preserve">
<g>
	<path fill="#2C2C2C" d="M1261.7,24c-0.1,0-0.3-0.1-0.4-0.2l-2.7-2.7c-0.2-0.2-0.2-0.6,0-0.8c0.2-0.2,0.6-0.2,0.8,0l2.7,2.7   c0.2,0.2,0.2,0.6,0,0.8C1261.9,24,1261.8,24,1261.7,24z"/>
	<path fill="#2C2C2C" d="M1258.9,24c-0.1,0-0.3-0.1-0.4-0.2c-0.2-0.2-0.2-0.6,0-0.8l2.7-2.7c0.2-0.2,0.6-0.2,0.8,0   c0.2,0.2,0.2,0.6,0,0.8l-2.7,2.7C1259.2,24,1259.1,24,1258.9,24z"/>
</g>
<path fill="#2C2C2C" d="M1246.3,28.6c-1.8,0-3.2-1.4-3.2-3.2s1.4-3.2,3.2-3.2c1.8,0,3.2,1.4,3.2,3.2  C1249.5,27.1,1248.1,28.6,1246.3,28.6z M1246.3,23.8c-0.9,0-1.6,0.7-1.6,1.6s0.7,1.6,1.6,1.6s1.6-0.7,1.6-1.6  C1247.9,24.5,1247.2,23.8,1246.3,23.8z"/>
<path fill="#2C2C2C" d="M1250,39.1c-0.3,0-0.5-0.1-0.7-0.3l-5.3-5.3l-5.3,5.3c-0.4,0.4-1,0.4-1.4,0c-0.4-0.4-0.4-1,0-1.4l6.1-6.1  c0.4-0.4,1-0.4,1.4,0l6.1,6.1c0.4,0.4,0.4,1,0,1.4C1250.6,39,1250.3,39.1,1250,39.1z"/>
<path fill="#2C2C2C" d="M1247.6,36.2c-0.2,0-0.5-0.1-0.7-0.3c-0.4-0.4-0.5-1-0.1-1.4l6.5-7.2c0.2-0.2,0.4-0.3,0.7-0.3  c0.3,0,0.5,0.1,0.7,0.3l7.1,7.1c0.4,0.4,0.4,1,0,1.4c-0.4,0.4-1,0.4-1.4,0l-6.3-6.3l-5.8,6.4C1248.1,36.1,1247.9,36.2,1247.6,36.2  L1247.6,36.2z"/>
<text transform="matrix(1 0 0 1 965.5514 -1088.5996)"><tspan x="0" y="0" font-family="'MyriadPro-Regular'" font-size="12">    Maximize</tspan><tspan x="0" y="14.4" font-family="'MyriadPro-Regular'" font-size="12">    Camera</tspan><tspan x="0" y="28.8" font-family="'MyriadPro-Regular'" font-size="12">    Camera</tspan><tspan x="0" y="43.2" font-family="'MyriadPro-Regular'" font-size="12">    Camera</tspan><tspan x="0" y="57.6" font-family="'MyriadPro-Regular'" font-size="12">    Camera</tspan><tspan x="0" y="72" font-family="'MyriadPro-Regular'" font-size="12">    Camera</tspan><tspan x="0" y="86.4" font-family="'MyriadPro-Regular'" font-size="12">    Photo album</tspan><tspan x="0" y="100.8" font-family="'MyriadPro-Regular'" font-size="12">    Photo album</tspan><tspan x="0" y="115.2" font-family="'MyriadPro-Regular'" font-size="12">    Photo album</tspan><tspan x="0" y="129.6" font-family="'MyriadPro-Regular'" font-size="12">    Photo album</tspan><tspan x="0" y="144" font-family="'MyriadPro-Regular'" font-size="12">    Article</tspan><tspan x="0" y="158.4" font-family="'MyriadPro-Regular'" font-size="12">    Portfolio</tspan><tspan x="0" y="172.8" font-family="'MyriadPro-Regular'" font-size="12">    Reduce</tspan><tspan x="0" y="187.2" font-family="'MyriadPro-Regular'" font-size="12">    Article</tspan><tspan x="0" y="201.6" font-family="'MyriadPro-Regular'" font-size="12">    Multimedia</tspan><tspan x="0" y="216" font-family="'MyriadPro-Regular'" font-size="12">    Article</tspan><tspan x="0" y="230.4" font-family="'MyriadPro-Regular'" font-size="12">    Multimedia</tspan><tspan x="0" y="244.8" font-family="'MyriadPro-Regular'" font-size="12">    Article</tspan><tspan x="0" y="259.2" font-family="'MyriadPro-Regular'" font-size="12">    Multimedia</tspan><tspan x="0" y="273.6" font-family="'MyriadPro-Regular'" font-size="12">    Article</tspan><tspan x="0" y="288" font-family="'MyriadPro-Regular'" font-size="12">    Image</tspan><tspan x="0" y="302.4" font-family="'MyriadPro-Regular'" font-size="12">    Portfolio</tspan><tspan x="0" y="316.8" font-family="'MyriadPro-Regular'" font-size="12">    Pop up</tspan><tspan x="0" y="331.2" font-family="'MyriadPro-Regular'" font-size="12">    Article</tspan><tspan x="0" y="345.6" font-family="'MyriadPro-Regular'" font-size="12">    Article</tspan><tspan x="0" y="360" font-family="'MyriadPro-Regular'" font-size="12">    Article</tspan><tspan x="0" y="374.4" font-family="'MyriadPro-Regular'" font-size="12">    Pop up</tspan><tspan x="0" y="388.8" font-family="'MyriadPro-Regular'" font-size="12">    Article</tspan><tspan x="0" y="403.2" font-family="'MyriadPro-Regular'" font-size="12">    Portfolio</tspan><tspan x="0" y="417.6" font-family="'MyriadPro-Regular'" font-size="12">    Article</tspan><tspan x="0" y="432" font-family="'MyriadPro-Regular'" font-size="12">    Article</tspan><tspan x="0" y="446.4" font-family="'MyriadPro-Regular'" font-size="12">    Png</tspan><tspan x="0" y="460.8" font-family="'MyriadPro-Regular'" font-size="12">    Article</tspan><tspan x="0" y="475.2" font-family="'MyriadPro-Regular'" font-size="12">    Pop up</tspan><tspan x="0" y="489.6" font-family="'MyriadPro-Regular'" font-size="12">    Article</tspan><tspan x="0" y="504" font-family="'MyriadPro-Regular'" font-size="12">    Portfolio</tspan><tspan x="0" y="518.4" font-family="'MyriadPro-Regular'" font-size="12">    Article</tspan><tspan x="0" y="532.8" font-family="'MyriadPro-Regular'" font-size="12">    Article</tspan><tspan x="0" y="547.2" font-family="'MyriadPro-Regular'" font-size="12">    Article</tspan><tspan x="0" y="561.6" font-family="'MyriadPro-Regular'" font-size="12">    Pop up</tspan><tspan x="0" y="576" font-family="'MyriadPro-Regular'" font-size="12">    Picture</tspan><tspan x="0" y="590.4" font-family="'MyriadPro-Regular'" font-size="12">    Wedding photo</tspan><tspan x="0" y="604.8" font-family="'MyriadPro-Regular'" font-size="12">    Wedding photo</tspan><tspan x="0" y="619.2" font-family="'MyriadPro-Regular'" font-size="12">    Wedding photo</tspan><tspan x="0" y="633.6" font-family="'MyriadPro-Regular'" font-size="12">    Wedding photo</tspan><tspan x="0" y="648" font-family="'MyriadPro-Regular'" font-size="12">    Gallery</tspan><tspan x="0" y="662.4" font-family="'MyriadPro-Regular'" font-size="12">    Gallery</tspan><tspan x="0" y="676.8" font-family="'MyriadPro-Regular'" font-size="12">    Gallery</tspan><tspan x="0" y="691.2" font-family="'MyriadPro-Regular'" font-size="12">    Picture</tspan><tspan x="0" y="705.6" font-family="'MyriadPro-Regular'" font-size="12">    Image</tspan><tspan x="0" y="720" font-family="'MyriadPro-Regular'" font-size="12">    Picture</tspan><tspan x="0" y="734.4" font-family="'MyriadPro-Regular'" font-size="12">    Image</tspan><tspan x="0" y="748.8" font-family="'MyriadPro-Regular'" font-size="12">    Gallery</tspan><tspan x="0" y="763.2" font-family="'MyriadPro-Regular'" font-size="12">    Image</tspan><tspan x="0" y="777.6" font-family="'MyriadPro-Regular'" font-size="12">    Image</tspan><tspan x="0" y="792" font-family="'MyriadPro-Regular'" font-size="12">    Image</tspan><tspan x="0" y="806.4" font-family="'MyriadPro-Regular'" font-size="12">    Image</tspan><tspan x="0" y="820.8" font-family="'MyriadPro-Regular'" font-size="12">    Picture</tspan><tspan x="0" y="835.2" font-family="'MyriadPro-Regular'" font-size="12">    Feedback</tspan><tspan x="0" y="849.6" font-family="'MyriadPro-Regular'" font-size="12">    Picture</tspan><tspan x="0" y="864" font-family="'MyriadPro-Regular'" font-size="12">    Picture</tspan><tspan x="0" y="878.4" font-family="'MyriadPro-Regular'" font-size="12">    Picture</tspan><tspan x="0" y="892.8" font-family="'MyriadPro-Regular'" font-size="12">    Picture</tspan><tspan x="0" y="907.2" font-family="'MyriadPro-Regular'" font-size="12">    Feedback</tspan><tspan x="0" y="921.6" font-family="'MyriadPro-Regular'" font-size="12">    Love</tspan><tspan x="0" y="936" font-family="'MyriadPro-Regular'" font-size="12">    Love</tspan><tspan x="0" y="950.4" font-family="'MyriadPro-Regular'" font-size="12">    Love</tspan><tspan x="0" y="964.8" font-family="'MyriadPro-Regular'" font-size="12">    Feedback</tspan><tspan x="0" y="979.2" font-family="'MyriadPro-Regular'" font-size="12">    Love</tspan><tspan x="0" y="993.6" font-family="'MyriadPro-Regular'" font-size="12">    Couple</tspan><tspan x="0" y="1008" font-family="'MyriadPro-Regular'" font-size="12">    Couple</tspan><tspan x="0" y="1022.4" font-family="'MyriadPro-Regular'" font-size="12">    Couple</tspan><tspan x="0" y="1036.8" font-family="'MyriadPro-Regular'" font-size="12">    Couple</tspan><tspan x="0" y="1051.2" font-family="'MyriadPro-Regular'" font-size="12">    Image</tspan><tspan x="0" y="1065.6" font-family="'MyriadPro-Regular'" font-size="12">    Projector</tspan><tspan x="0" y="1080" font-family="'MyriadPro-Regular'" font-size="12">    Camera</tspan><tspan x="0" y="1094.4" font-family="'MyriadPro-Regular'" font-size="12">    Picture</tspan><tspan x="0" y="1108.8" font-family="'MyriadPro-Regular'" font-size="12">    Camera</tspan><tspan x="0" y="1123.2" font-family="'MyriadPro-Regular'" font-size="12">    Painting</tspan><tspan x="0" y="1137.6" font-family="'MyriadPro-Regular'" font-size="12">    Painting</tspan><tspan x="0" y="1152" font-family="'MyriadPro-Regular'" font-size="12">    Painting</tspan><tspan x="0" y="1180.8" font-family="'MyriadPro-Regular'" font-size="12">Previous page Next page</tspan><tspan x="0" y="1209.6" font-family="'MyriadPro-Regular'" font-size="12">Sponsored results by Shutterstock</tspan><tspan x="0" y="1224" font-family="'MyriadPro-Regular'" font-size="12">10% off for all Shutterstock plans</tspan><tspan x="0" y="1238.4" font-family="'MyriadPro-Regular'" font-size="12">Promotional Code: SAVE10FLAT</tspan><tspan x="0" y="1252.8" font-family="'MyriadPro-Regular'" font-size="12">754519084</tspan><tspan x="0" y="1267.2" font-family="'MyriadPro-Regular'" font-size="12">593769053</tspan><tspan x="0" y="1281.6" font-family="'MyriadPro-Regular'" font-size="12">141949549</tspan><tspan x="0" y="1296" font-family="'MyriadPro-Regular'" font-size="12">491809717</tspan><tspan x="0" y="1310.4" font-family="'MyriadPro-Regular'" font-size="12">560970763</tspan><tspan x="0" y="1324.8" font-family="'MyriadPro-Regular'" font-size="12">488226739</tspan><tspan x="0" y="1339.2" font-family="'MyriadPro-Regular'" font-size="12">440386777</tspan><tspan x="0" y="1353.6" font-family="'MyriadPro-Regular'" font-size="12">673751281</tspan><tspan x="0" y="1368" font-family="'MyriadPro-Regular'" font-size="12">593753801</tspan><tspan x="0" y="1382.4" font-family="'MyriadPro-Regular'" font-size="12">1195743205</tspan><tspan x="0" y="1396.8" font-family="'MyriadPro-Regular'" font-size="12">732721924</tspan><tspan x="0" y="1411.2" font-family="'MyriadPro-Regular'" font-size="12">405401863</tspan><tspan x="0" y="1425.6" font-family="'MyriadPro-Regular'" font-size="12">657705298</tspan><tspan x="0" y="1440" font-family="'MyriadPro-Regular'" font-size="12">1008284794</tspan><tspan x="0" y="1454.4" font-family="'MyriadPro-Regular'" font-size="12">378571234</tspan><tspan x="0" y="1468.8" font-family="'MyriadPro-Regular'" font-size="12">Show more</tspan><tspan x="0" y="1497.6" font-family="'MyriadPro-Regular'" font-size="12">Content</tspan><tspan x="0" y="1526.4" font-family="'MyriadPro-Regular'" font-size="12">    Categories</tspan><tspan x="0" y="1540.8" font-family="'MyriadPro-Regular'" font-size="12">    Packs</tspan><tspan x="0" y="1555.2" font-family="'MyriadPro-Regular'" font-size="12">    Authors</tspan><tspan x="0" y="1569.6" font-family="'MyriadPro-Regular'" font-size="12">    Top icons</tspan><tspan x="0" y="1584" font-family="'MyriadPro-Regular'" font-size="12">    Latest icons</tspan><tspan x="0" y="1598.4" font-family="'MyriadPro-Regular'" font-size="12">    Tags</tspan><tspan x="0" y="1612.8" font-family="'MyriadPro-Regular'" font-size="12">    Icons editor</tspan><tspan x="0" y="1641.6" font-family="'MyriadPro-Regular'" font-size="12">APPs</tspan><tspan x="0" y="1670.4" font-family="'MyriadPro-Regular'" font-size="12">    @font-face generator</tspan><tspan x="0" y="1684.8" font-family="'MyriadPro-Regular'" font-size="12">    Google docs extension</tspan><tspan x="0" y="1713.6" font-family="'MyriadPro-Regular'" font-size="12">Legal</tspan><tspan x="0" y="1742.4" font-family="'MyriadPro-Regular'" font-size="12">    Terms &amp; conditions</tspan><tspan x="0" y="1756.8" font-family="'MyriadPro-Regular'" font-size="12">    Privacy policy</tspan><tspan x="0" y="1771.2" font-family="'MyriadPro-Regular'" font-size="12">    Cookies policy</tspan><tspan x="0" y="1785.6" font-family="'MyriadPro-Regular'" font-size="12">    Copyrights Notification</tspan><tspan x="0" y="1814.4" font-family="'MyriadPro-Regular'" font-size="12">Help</tspan><tspan x="0" y="1843.2" font-family="'MyriadPro-Regular'" font-size="12">    Flaticon Collections</tspan><tspan x="0" y="1857.6" font-family="'MyriadPro-Regular'" font-size="12">    Support</tspan><tspan x="0" y="1872" font-family="'MyriadPro-Regular'" font-size="12">    Contact</tspan><tspan x="0" y="1886.4" font-family="'MyriadPro-Regular'" font-size="12">    About us</tspan><tspan x="0" y="1900.8" font-family="'MyriadPro-Regular'" font-size="12">    Become a creator</tspan><tspan x="0" y="1915.2" font-family="'MyriadPro-Regular'" font-size="12">    Plans and Pricing</tspan><tspan x="0" y="1929.6" font-family="'MyriadPro-Regular'" font-size="12">    Collections tour</tspan><tspan x="0" y="1944" font-family="'MyriadPro-Regular'" font-size="12">    Feedback</tspan><tspan x="0" y="1958.4" font-family="'MyriadPro-Regular'" font-size="12">    API</tspan><tspan x="0" y="1987.2" font-family="'MyriadPro-Regular'" font-size="12">Social media</tspan><tspan x="0" y="2016" font-family="'MyriadPro-Regular'" font-size="12">Get exclusive resources straight to your inbox</tspan><tspan x="0" y="2030.4" font-family="'MyriadPro-Regular'" font-size="12">Sign up</tspan><tspan x="0" y="2044.8" font-family="'MyriadPro-Regular'" font-size="12">Freepik Company</tspan><tspan x="0" y="2073.6" font-family="'MyriadPro-Regular'" font-size="12">Copyright © 2013-2019 Freepik Company S.L. All rights reserved.</tspan><tspan x="0" y="2088" font-family="'MyriadPro-Regular'" font-size="12">Freepik company projects</tspan><tspan x="0" y="2116.8" font-family="'MyriadPro-Regular'" font-size="12">    Freepik Flaticon Piktab </tspan><tspan x="0" y="2145.6" font-family="'MyriadPro-Regular'" font-size="12">Pop up</tspan><tspan x="0" y="2174.4" font-family="'MyriadPro-Regular'" font-size="12">Hey! Remember you have to credit the author</tspan><tspan x="0" y="2203.2" font-family="'MyriadPro-Regular'" font-size="12">Copy the following link into the website you'll use this resource on. If you want to know more, read the Attribution Guide.</tspan></text>
</svg>